<?xml version="1.0" encoding="utf-8"?>
<!-- Generator: Adobe Illustrator 23.0.3, SVG Export Plug-In . SVG Version: 6.00 Build 0)  -->
<svg version="1.1" id="Layer_1" xmlns="http://www.w3.org/2000/svg" xmlns:xlink="http://www.w3.org/1999/xlink" x="0px" y="0px"
	 viewBox="0 0 800 800" style="enable-background:new 0 0 800 800;" xml:space="preserve">
<style type="text/css">
	.st0{fill-rule:evenodd;clip-rule:evenodd;fill:url(#SVGID_1_);}
</style>
<linearGradient id="SVGID_1_" gradientUnits="userSpaceOnUse" x1="199.0188" y1="130.9437" x2="627.4188" y2="559.3438" gradientTransform="matrix(1 0 0 -1 0 800)">
	<stop  offset="0" style="stop-color:#9456DC"/>
	<stop  offset="1" style="stop-color:#FF79DA"/>
</linearGradient>
<path class="st0" d="M32.4,424.2h160.9c14.1,0,26.1,9,30.6,21.7h132l-4.9-26.2c-1.1-5.9,2.7-11.5,8.6-12.6c0.7-0.1,1.3-0.2,2-0.2
	l0,0h427.6c5.9,0,10.8,4.8,10.8,10.8c0,1.2-0.2,2.4-0.6,3.5l-17.5,66.3c-5,19.1-13.5,37-26.2,49.7c-11.5,11.5-26.2,18.6-44.5,18.6
	H434.5c-18.8,0-34.2-7.4-46.2-19.3c-12.7-12.7-21.1-30.5-24.7-49.8l-3.6-19.3H224c-4.5,12.6-16.5,21.7-30.6,21.7h-161
	C14.6,489.1,0,474.5,0,456.6C0,438.8,14.6,424.2,32.4,424.2L32.4,424.2z M761.1,482l14.1-53.5H374.6l10.2,54.3
	c2.9,15.1,9.2,29,18.8,38.5c8,8,18.4,13,30.9,13h276.7c12,0,21.7-4.8,29.3-12.3C750.3,512.1,757,497.7,761.1,482L761.1,482z"/>
</svg>
